<svg xmlns="http://www.w3.org/2000/svg" width="51" height="50" viewBox="0 0 51 50"><g fill="none" fill-rule="evenodd" transform="translate(1)"><path stroke="#333" stroke-width="2" d="M13.878 4.88C5.713 8.41 0 16.538 0 26a22.92 22.92 0 0 0 6.211 15.72m4.387 3.653A22.892 22.892 0 0 0 23 49c9.918 0 18.37-6.277 21.598-15.075m1.272-5.463c.086-.81.13-1.63.13-2.462C46 13.297 35.703 3 23 3c-1.309 0-2.592.11-3.841.32"/><circle cx="17" cy="4" r="3" stroke="#333" stroke-width="2"/><circle cx="46" cy="32" r="3" stroke="#333" stroke-width="2"/><circle cx="8" cy="44" r="3" stroke="#333" stroke-width="2"/><path fill="#333" d="M23 41c-8.284 0-15-6.716-15-15 0-8.284 6.716-15 15-15 8.284 0 15 6.716 15 15 0 8.284-6.716 15-15 15zm-1.897-20.969a1 1 0 0 0-1.603.798v10.342a1 1 0 0 0 1.549.836l7.325-4.809a1 1 0 0 0 .054-1.633l-7.325-5.534z"/></g></svg>