<svg xmlns="http://www.w3.org/2000/svg" width="232" height="52" viewBox="0 0 232 52">
  <g fill="none" fill-rule="evenodd">
    <g transform="translate(2 1)">
      <path stroke="#FFF" stroke-width="2" d="M13.8782176,4.8797998 C5.71330263,8.41099302 0,16.5382898 0,26 C0,32.0795911 2.35883027,37.6082479 6.21121031,41.7206899 M10.5984295,45.373471 C14.1768532,47.6688893 18.4329778,49 23,49 C32.9176047,49 41.3691057,42.7228641 44.5982557,33.9248395 M45.8698237,28.4615459 C45.9558698,27.6528139 46,26.8315605 46,26 C46,13.2974508 35.7025492,3 23,3 C21.6911517,3 20.4078381,3.10932678 19.1586928,3.31934655"/>
      <circle cx="17" cy="4" r="3" stroke="#FFF" stroke-width="2"/>
      <circle cx="46" cy="32" r="3" stroke="#FFF" stroke-width="2"/>
      <circle cx="8" cy="44" r="3" stroke="#FFF" stroke-width="2"/>
      <path fill="#FFF" d="M23,41 C14.7157288,41 8,34.2842712 8,26 C8,17.7157288 14.7157288,11 23,11 C31.2842712,11 38,17.7157288 38,26 C38,34.2842712 31.2842712,41 23,41 Z M21.1027395,20.031257 C20.9291533,19.900135 20.7175434,19.8291951 20.5,19.8291951 C19.9477153,19.8291951 19.5,20.2769103 19.5,20.8291951 L19.5,31.170692 C19.5,31.3656835 19.5570075,31.5564209 19.6640071,31.7194323 C19.967068,32.1811384 20.5870341,32.3097458 21.0487403,32.0066849 L28.3739673,27.1984538 C28.4697869,27.1355585 28.5540805,27.0566582 28.6231651,26.9652004 C28.9560489,26.5245113 28.8686555,25.8974067 28.4279665,25.5645229 L21.1027395,20.031257 Z"/>
    </g>
    <text fill="#FFF" font-family="OpenSans-Bold, Open Sans" font-size="22" font-weight="bold">
      <tspan x="63" y="37">Mobile Practice</tspan>
    </text>
  </g>
</svg>
