<?xml version="1.0" encoding="UTF-8"?>
<svg width="1363px" height="1363px" viewBox="0 0 1363 1363" version="1.1" xmlns="http://www.w3.org/2000/svg" xmlns:xlink="http://www.w3.org/1999/xlink">
    <!-- Generator: Sketch 44.1 (41455) - http://www.bohemiancoding.com/sketch -->
    <title>check</title>
    <desc>Created with Sketch.</desc>
    <defs></defs>
    <g id="Page-1" stroke="none" stroke-width="1" fill="none" fill-rule="evenodd">
        <g id="check" fill="#93989A">
            <g id="path-1-link">
                <path d="M1230,678 C1230,579.333333 1205.66667,488.333333 1157,405 C1108.33333,321.666667 1042.33333,255.666667 959,207 C875.666667,158.333333 784.666667,134 686,134 C587.333333,134 496.333333,158.333333 413,207 C329.666667,255.666667 263.666667,321.666667 215,405 C166.333333,488.333333 142,579.333333 142,678 C142,776.666667 166.333333,867.666667 215,951 C263.666667,1034.33333 329.666667,1100.33333 413,1149 C496.333333,1197.66667 587.333333,1222 686,1222 C784.666667,1222 875.666667,1197.66667 959,1149 C1042.33333,1100.33333 1108.33333,1034.33333 1157,951 C1205.66667,867.666667 1230,776.666667 1230,678 Z M1089,588.124228 L667,951.437721 C654.333333,964.104391 639.333333,970.437721 622,970.437721 C604.666667,970.437721 589.666667,964.104391 577,951.437721 L283,657.437721 C270.333333,644.771054 264,629.771054 264,612.437721 C264,595.104388 270.333333,580.104388 283,567.437721 L311.895641,543.124228 C334.341543,533.200248 336.685235,533.200248 354.018568,533.200248 C371.351901,533.200248 386.351901,539.533581 399.018568,552.200248 L622,787.447971 L978.735202,490.686508 C991.401869,478.019841 1006.40187,471.686508 1023.7352,471.686508 C1041.06853,471.686508 1053.27279,471.686508 1071.97934,482.826715 L1089,498.124228 C1101.66667,510.790895 1108,525.790895 1108,543.124228 C1108,560.457561 1101.66667,575.457561 1089,588.124228 Z M1363,681.5 C1363,805.140191 1332.53364,919.167206 1271.60091,1023.58105 C1210.66818,1127.9949 1127.9949,1210.66818 1023.58105,1271.60091 C919.167206,1332.53364 805.140191,1363 681.5,1363 C557.859809,1363 443.832791,1332.53364 339.418945,1271.60091 C235.0051,1210.66818 152.331815,1127.9949 91.3990885,1023.58105 C30.4663628,919.167206 0,805.140191 0,681.5 C0,557.859809 30.4663628,443.832791 91.3990885,339.418945 C152.331815,235.0051 235.0051,152.331815 339.418945,91.3990885 C443.832791,30.4663628 557.859809,0 681.5,0 C805.140191,0 919.167206,30.4663628 1023.58105,91.3990885 C1127.9949,152.331815 1210.66818,235.0051 1271.60091,339.418945 C1332.53364,443.832791 1363,557.859809 1363,681.5 Z" id="path-1"></path>
            </g>
        </g>
    </g>
</svg>