<?xml version="1.0" encoding="UTF-8"?>
<svg width="29px" height="29px" viewBox="0 0 29 29" version="1.1" xmlns="http://www.w3.org/2000/svg" xmlns:xlink="http://www.w3.org/1999/xlink">
    <!-- Generator: Sketch 45.1 (43504) - http://www.bohemiancoding.com/sketch -->
    <title>Group 6 Copy 4</title>
    <desc>Created with Sketch.</desc>
    <defs>
        <linearGradient x1="100%" y1="50%" x2="0%" y2="50%" id="linearGradient-1">
            <stop stop-color="#FA384D" offset="0%"></stop>
            <stop stop-color="#FA513C" offset="100%"></stop>
        </linearGradient>
        <linearGradient x1="71.1852773%" y1="29.7147034%" x2="14.0243584%" y2="57.7127506%" id="linearGradient-2">
            <stop stop-color="#FA394D" offset="0%"></stop>
            <stop stop-color="#FA3A4D" offset="100%"></stop>
        </linearGradient>
        <linearGradient x1="96.1989377%" y1="31.6516881%" x2="8.2760476%" y2="75.8787473%" id="linearGradient-3">
            <stop stop-color="#FA4942" offset="0%"></stop>
            <stop stop-color="#FA4C40" offset="100%"></stop>
        </linearGradient>
        <linearGradient x1="93.9252937%" y1="31.5417107%" x2="9.68671597%" y2="55.1964385%" id="linearGradient-4">
            <stop stop-color="#FA4842" offset="0%"></stop>
            <stop stop-color="#FA4C40" offset="100%"></stop>
        </linearGradient>
    </defs>
    <g id="Page-1" stroke="none" stroke-width="1" fill="none" fill-rule="evenodd">
        <g id="Assets/App-Icon/Icon-Small">
            <g id="Group-6-Copy-4">
                <rect id="Rectangle-24-Copy-16" fill="#FFFFFF" x="0" y="0" width="29" height="29"></rect>
                <g id="Group-5" transform="translate(2.900000, 1.450000)">
                    <path d="M11.6,23.649349 C17.4726278,23.649349 22.2333333,18.8886435 22.2333333,13.0160156 C22.2333333,7.14338779 17.4726278,2.38268229 11.6,2.38268229 C5.72737216,2.38268229 0.966666667,7.14338779 0.966666667,13.0160156 C0.966666667,18.8886435 5.72737216,23.649349 11.6,23.649349 Z M11.6,24.6160156 C5.1934969,24.6160156 0,19.4225187 0,13.0160156 C0,6.60951253 5.1934969,1.41601562 11.6,1.41601562 C18.0065031,1.41601562 23.2,6.60951253 23.2,13.0160156 C23.2,19.4225187 18.0065031,24.6160156 11.6,24.6160156 Z" id="Oval-6-Copy-13" fill="url(#linearGradient-1)" fill-rule="nonzero"></path>
                    <g id="Group-2" transform="translate(20.300000, 13.533333)">
                        <path d="M2.12012962,3.00815937 C2.65400488,3.00815937 3.08679629,2.57536796 3.08679629,2.0414927 C3.08679629,1.50761744 2.65400488,1.07482603 2.12012962,1.07482603 C1.58625436,1.07482603 1.15346295,1.50761744 1.15346295,2.0414927 C1.15346295,2.57536796 1.58625436,3.00815937 2.12012962,3.00815937 Z M2.12012962,3.97482603 C1.0523791,3.97482603 0.186796285,3.10924322 0.186796285,2.0414927 C0.186796285,0.973742184 1.0523791,0.108159367 2.12012962,0.108159367 C3.18788013,0.108159367 4.05346295,0.973742184 4.05346295,2.0414927 C4.05346295,3.10924322 3.18788013,3.97482603 2.12012962,3.97482603 Z" id="Oval-9-Copy-27" fill="url(#linearGradient-2)" fill-rule="nonzero"></path>
                        <circle id="Oval-9-Copy-29" fill="#FFFFFF" cx="2.12012962" cy="2.0414927" r="1"></circle>
                    </g>
                    <g id="Group-4" transform="translate(6.283333, 0.000000)">
                        <path d="M2.16572542,3.31093249 C2.69960068,3.31093249 3.13239209,2.87814108 3.13239209,2.34426582 C3.13239209,1.81039056 2.69960068,1.37759915 2.16572542,1.37759915 C1.63185016,1.37759915 1.19905875,1.81039056 1.19905875,2.34426582 C1.19905875,2.87814108 1.63185016,3.31093249 2.16572542,3.31093249 Z M2.16572542,4.27759915 C1.0979749,4.27759915 0.232392087,3.41201634 0.232392087,2.34426582 C0.232392087,1.2765153 1.0979749,0.410932487 2.16572542,0.410932487 C3.23347594,0.410932487 4.09905875,1.2765153 4.09905875,2.34426582 C4.09905875,3.41201634 3.23347594,4.27759915 2.16572542,4.27759915 Z" id="Oval-9-Copy-26" fill="url(#linearGradient-3)" fill-rule="nonzero"></path>
                        <circle id="Oval-9-Copy-30" fill="#FFFFFF" cx="2.16572542" cy="2.34426582" r="1"></circle>
                    </g>
                    <g id="Group-3" transform="translate(2.416667, 19.333333)">
                        <circle id="Oval-9-Copy-31" fill="#FFFFFF" cx="2.05814728" cy="2.21081644" r="1"></circle>
                        <path d="M2.05814728,3.17748311 C2.59202253,3.17748311 3.02481394,2.7446917 3.02481394,2.21081644 C3.02481394,1.67694118 2.59202253,1.24414978 2.05814728,1.24414978 C1.52427202,1.24414978 1.09148061,1.67694118 1.09148061,2.21081644 C1.09148061,2.7446917 1.52427202,3.17748311 2.05814728,3.17748311 Z M2.05814728,4.14414978 C0.99039676,4.14414978 0.124813943,3.27856696 0.124813943,2.21081644 C0.124813943,1.14306593 0.99039676,0.277483109 2.05814728,0.277483109 C3.12589779,0.277483109 3.99148061,1.14306593 3.99148061,2.21081644 C3.99148061,3.27856696 3.12589779,4.14414978 2.05814728,4.14414978 Z" id="Oval-9-Copy-28" fill="url(#linearGradient-4)" fill-rule="nonzero"></path>
                    </g>
                    <g id="Group" transform="translate(4.350000, 5.760544)">
                        <circle id="Oval-6-Copy-9" fill="url(#linearGradient-1)" cx="7.25" cy="7.25547141" r="7.25"></circle>
                        <path d="M6.33299074,4.37057896 L9.87351714,7.04499079 C10.0865168,7.20588463 10.128757,7.50898523 9.96786312,7.72198492 C9.93447223,7.76618953 9.89373033,7.80432466 9.84741753,7.83472408 L6.30689113,10.1587025 C6.08373317,10.3051819 5.78408286,10.2430217 5.63760344,10.0198637 C5.58588694,9.94107483 5.55833333,9.84888508 5.55833333,9.75463923 L5.55833333,4.75624902 C5.55833333,4.48931139 5.77472904,4.27291569 6.04166667,4.27291569 C6.14681264,4.27291569 6.24909077,4.30720334 6.33299074,4.37057896 Z" id="Rectangle-31-Copy-4" fill="#FFFFFF"></path>
                    </g>
                </g>
            </g>
        </g>
    </g>
</svg>